#!OML:ASF H:\Dans Jumps\Project 1\Capture day 1\Session 1\subject.ASF
:FULLY-SPECIFIED
:DEGREES
479
root 0.306545 17.6996 -2.93892 9.11229 0.60856 -1.59635
lowerback 2.10964 -0.252587 -0.123242
upperback 3.46665 -0.371164 1.89124
thorax 2.38859 -0.215104 2.01145
lowerneck -13.3121 -0.196005 -2.01497
upperneck 33.595 -0.0875817 1.0606
head 13.5608 -0.15119 0.761967
rclavicle -2.38542e-015 -3.57812e-015
rhumerus -25.7754 -14.7976 -79.715
rradius 23.2619
rwrist 34.1864
rhand -19.5558 -26.6299
rfingers 7.12502
rthumb 6.76866 -56.5017
lclavicle -2.38542e-015 -3.57812e-015
lhumerus -24.9462 -3.22875 91.446
lradius 17.4217
lwrist 9.18154
lhand -25.5021 -3.61659
lfingers 7.12502
lthumb 1.02667 26.3607
rfemur -20.5786 -1.57056 19.9289
rtibia 25.458
rfoot -12.7565 -0.427995
rtoes 15.4925
lfemur -19.8672 6.8839 -17.2963
ltibia 23.5874
lfoot -9.65544 3.0009
ltoes 2.0251
480
root 0.30828 17.703 -2.93121 9.10073 0.609838 -1.58478
lowerback 2.06255 -0.245062 -0.145645
upperback 3.44949 -0.361426 1.89196
thorax 2.39713 -0.210751 2.02458
lowerneck -13.2996 -0.202626 -2.01563
upperneck 33.6055 -0.102667 1.07621
head 13.5628 -0.155733 0.766056
rclavicle 6.95746e-016 1.51076e-014
rhumerus -25.7574 -14.7286 -79.7525
rradius 23.3009
rwrist 34.1226
rhand -19.5527 -26.6444
rfingers 7.12502
rthumb 6.77163 -56.5161
lclavicle 6.95746e-016 1.51076e-014
lhumerus -24.958 -3.56198 91.5582
lradius 17.5969
lwrist 9.39015
lhand -25.1194 -2.70364
lfingers 7.12502
lthumb 1.39627 27.2715
rfemur -20.4768 -1.57057 19.9105
rtibia 25.3483
rfoot -12.7352 -0.441129
rtoes 15.4865
lfemur -19.7419 6.87597 -17.3087
ltibia 23.433
lfoot -9.61984 2.99249
ltoes 2.0441
481
root 0.310144 17.7064 -2.9237 9.08923 0.611361 -1.57506
lowerback 2.01401 -0.239608 -0.163022
upperback 3.4318 -0.354404 1.89211
thorax 2.406 -0.207621 2.0343
lowerneck -13.2817 -0.206225 -2.0174
upperneck 33.6133 -0.113195 1.09197
head 13.5625 -0.158431 0.771059
rclavicle 1.09332e-015 3.97569e-015
rhumerus -25.742 -14.664 -79.7912
rradius 23.3386
rwrist 34.0614
rhand -19.5447 -26.6561
rfingers 7.12502
rthumb 6.77939 -56.5276
lclavicle 1.09332e-015 3.97569e-015
lhumerus -24.9763 -3.87851 91.6587
lradius 17.7708
lwrist 9.62741
lhand -24.8823 -2.02366
lfingers 7.12502
lthumb 1.62523 27.9499
rfemur -20.3764 -1.57345 19.8938
rtibia 25.2397
rfoot -12.7149 -0.451728
rtoes 15.4784
lfemur -19.618 6.86531 -17.3188
ltibia 23.2807
lfoot -9.58581 2.98634
ltoes 2.06674
482
root 0.312091 17.7095 -2.91652 9.07727 0.610537 -1.57144
lowerback 1.96789 -0.235167 -0.171773
upperback 3.41228 -0.348639 1.89224
thorax 2.4116 -0.20488 2.03918
lowerneck -13.2588 -0.208028 -2.02059
upperneck 33.6216 -0.120675 1.10725
head 13.5612 -0.160078 0.776574
rclavicle 5.96354e-016 -5.96354e-015
rhumerus -25.7285 -14.6103 -79.8298
rradius 23.369
rwrist 34.0081
rhand -19.5408 -26.6622
rfingers 7.12502
rthumb 6.78316 -56.5335
lclavicle 5.96354e-016 -5.96354e-015
lhumerus -25.0008 -4.16842 91.7423
lradius 17.935
lwrist 9.85949
lhand -24.7039 -1.42756
lfingers 7.12502
lthumb 1.7975 28.5446
rfemur -20.2791 -1.57488 19.8834
rtibia 25.134
rfoot -12.6962 -0.462114
rtoes 15.4583
lfemur -19.4974 6.8514 -17.3216
ltibia 23.1343
lfoot -9.5524 2.98706
ltoes 2.09192
483
root 0.314157 17.7125 -2.90967 9.06528 0.608604 -1.57007
lowerback 1.92124 -0.23266 -0.175349
upperback 3.39347 -0.345441 1.89209
thorax 2.41829 -0.2033 2.04085
lowerneck -13.2361 -0.206061 -2.03097
upperneck 33.6335 -0.12204 1.12673
head 13.5614 -0.159467 0.785976
rclavicle 6.95746e-016 -3.97569e-016
rhumerus -25.709 -14.5721 -79.8668
rradius 23.3862
rwrist 33.9742
rhand -19.5409 -26.6631
rfingers 7.12502
rthumb 6.78305 -56.5345
lclavicle 6.95746e-016 -3.97569e-016
lhumerus -25.0257 -4.42321 91.807
lradius 18.0701
lwrist 10.0543
lhand -24.6099 -1.03764
lfingers 7.12502
lthumb 1.88832 28.9337
rfemur -20.1852 -1.57822 19.8755
rtibia 25.0319
rfoot -12.6787 -0.470503
rtoes 15.4322
lfemur -19.3814 6.8335 -17.3215
ltibia 22.9947
lfoot -9.51996 2.99383
ltoes 2.1039
484
root 0.315943 17.7152 -2.90378 9.06423 0.593973 -1.56978
lowerback 1.86081 -0.231857 -0.179737
upperback 3.37448 -0.344623 1.8909
thorax 2.43263 -0.202955 2.04185
lowerneck -13.2093 -0.204157 -2.05329
upperneck 33.6465 -0.122159 1.15142
head 13.5612 -0.159217 0.799718
rclavicle 3.67752e-015 -5.96354e-015
rhumerus -25.6786 -14.5208 -79.9171
rradius 23.3991
rwrist 33.9365
rhand -19.5273 -26.6981
rfingers 7.12502
rthumb 6.79618 -56.569
lclavicle 3.67752e-015 -5.96354e-015
lhumerus -25.0441 -4.65552 91.8543
lradius 18.1699
lwrist 10.2408
lhand -24.625 -0.916586
lfingers 7.12502
lthumb 1.8737 29.0549
rfemur -20.1121 -1.57254 19.8689
rtibia 24.9351
rfoot -12.658 -0.477225
rtoes 15.396
lfemur -19.2839 6.82711 -17.3227
ltibia 22.8634
lfoot -9.48749 3.00305
ltoes 2.09908
485
root 0.317827 17.7178 -2.89822 9.05894 0.580053 -1.57273
lowerback 1.80657 -0.232428 -0.17929
upperback 3.35881 -0.345635 1.89056
thorax 2.44696 -0.203438 2.04104
lowerneck -13.1998 -0.211227 -2.09398
upperneck 33.6743 -0.133968 1.18773
head 13.5716 -0.164918 0.819705
rclavicle 2.98177e-016 -7.95139e-015
rhumerus -25.6386 -14.4888 -79.9643
rradius 23.3982
rwrist 33.9198
rhand -19.5217 -26.7183
rfingers 7.12502
rthumb 6.8016 -56.589
lclavicle 2.98177e-016 -7.95139e-015
lhumerus -25.0593 -4.86237 91.8867
lradius 18.2449
lwrist 10.3888
lhand -24.6513 -0.91853
lfingers 7.12502
lthumb 1.84833 29.0532
rfemur -20.0387 -1.56586 19.8657
rtibia 24.8441
rfoot -12.6386 -0.486128
rtoes 15.3547
lfemur -19.1865 6.81996 -17.3201
ltibia 22.7379
lfoot -9.45624 3.0137
ltoes 2.07121
486
root 0.319748 17.7202 -2.89326 9.05278 0.563275 -1.57422
lowerback 1.75594 -0.233665 -0.179829
upperback 3.34645 -0.347543 1.88958
thorax 2.46272 -0.204409 2.04014
lowerneck -13.1936 -0.219307 -2.13378
upperneck 33.7004 -0.14544 1.21813
head 13.582 -0.171154 0.837234
rclavicle 5.96354e-016 3.18055e-015
rhumerus -25.5903 -14.4604 -80.0143
rradius 23.3937
rwrist 33.9039
rhand -19.512 -26.7333
rfingers 7.12502
rthumb 6.81094 -56.6037
lclavicle 5.96354e-016 3.18055e-015
lhumerus -25.0657 -5.05987 91.9096
lradius 18.3029
lwrist 10.5265
lhand -24.6586 -0.926587
lfingers 7.12502
lthumb 1.84128 29.0452
rfemur -19.9705 -1.55596 19.8605
rtibia 24.759
rfoot -12.6173 -0.496818
rtoes 15.3194
lfemur -19.0923 6.81461 -17.3198
ltibia 22.6169
lfoot -9.42546 3.0241
ltoes 2.03345
487
root 0.321728 17.7225 -2.88854 9.04131 0.546359 -1.56951
lowerback 1.71351 -0.234228 -0.185191
upperback 3.33846 -0.348501 1.88616
thorax 2.47836 -0.205013 2.03946
lowerneck -13.1914 -0.225147 -2.15912
upperneck 33.7238 -0.152232 1.233
head 13.592 -0.175556 0.846758
rclavicle -1.49089e-015 1.23246e-014
rhumerus -25.5413 -14.4333 -80.0659
rradius 23.3942
rwrist 33.8801
rhand -19.5003 -26.7404
rfingers 7.12502
rthumb 6.82223 -56.6105
lclavicle -1.49089e-015 1.23246e-014
lhumerus -25.0626 -5.24069 91.9223
lradius 18.3535
lwrist 10.6443
lhand -24.6156 -0.848639
lfingers 7.12502
lthumb 1.88284 29.1228
rfemur -19.8995 -1.54363 19.8478
rtibia 24.6778
rfoot -12.5955 -0.511058
rtoes 15.2959
lfemur -18.994 6.81032 -17.3265
ltibia 22.4969
lfoot -9.39686 3.03243
ltoes 1.99444
488
root 0.323766 17.7248 -2.88398 9.02257 0.532787 -1.56021
lowerback 1.683 -0.23461 -0.193363
upperback 3.33306 -0.349105 1.8807
thorax 2.48996 -0.205472 2.03831
lowerneck -13.1863 -0.224852 -2.16982
upperneck 33.7426 -0.149986 1.23581
head 13.5991 -0.175731 0.850247
rclavicle 1.88845e-015 1.03368e-014
rhumerus -25.4976 -14.4098 -80.1165
rradius 23.4007
rwrist 33.8489
rhand -19.4903 -26.7262
rfingers 7.12502
rthumb 6.83191 -56.596
lclavicle 1.88845e-015 1.03368e-014
lhumerus -25.0545 -5.39257 91.922
lradius 18.3957
lwrist 10.718
lhand -24.5791 -0.792651
lfingers 7.12502
lthumb 1.91805 29.1785
rfemur -19.8229 -1.52918 19.8299
rtibia 24.6006
rfoot -12.5742 -0.534013
rtoes 15.2644
lfemur -18.8884 6.80763 -17.338
ltibia 22.3768
lfoot -9.37074 3.03411
ltoes 1.96222
489
root 0.325729 17.7271 -2.8798 9.00075 0.522331 -1.54637
lowerback 1.65396 -0.238527 -0.202963
upperback 3.32982 -0.35439 1.87296
thorax 2.50314 -0.208293 2.0356
lowerneck -13.1673 -0.216699 -2.17468
upperneck 33.756 -0.136351 1.23332
head 13.6005 -0.170935 0.85224
rclavicle -2.28602e-015 1.63003e-014
rhumerus -25.4694 -14.3459 -80.1802
rradius 23.4392
rwrist 33.7734
rhand -19.4673 -26.7311
rfingers 7.12502
rthumb 6.85406 -56.6002
lclavicle -2.28602e-015 1.63003e-014
lhumerus -25.0391 -5.51159 91.9083
lradius 18.4248
lwrist 10.7758
lhand -24.5957 -0.815185
lfingers 7.12502
lthumb 1.90207 29.1561
rfemur -19.7453 -1.5123 19.8074
rtibia 24.5265
rfoot -12.5524 -0.565039
rtoes 15.232
lfemur -18.7808 6.80637 -17.3544
ltibia 22.2552
lfoot -9.34295 3.02982
ltoes 1.93404
490
root 0.327586 17.7293 -2.87593 8.97964 0.509472 -1.52939
lowerback 1.62818 -0.241028 -0.215347
upperback 3.32667 -0.357707 1.86289
thorax 2.51451 -0.210157 2.03206
lowerneck -13.1568 -0.209046 -2.17335
upperneck 33.7804 -0.123006 1.225
head 13.6086 -0.1663 0.850905
rclavicle 1.88845e-015 -7.95139e-015
rhumerus -25.4453 -14.2828 -80.2456
rradius 23.4818
rwrist 33.6913
rhand -19.4463 -26.7283
rfingers 7.12502
rthumb 6.87438 -56.5966
lclavicle 1.88845e-015 -7.95139e-015
lhumerus -25.0179 -5.60608 91.8831
lradius 18.4435
lwrist 10.8063
lhand -24.6653 -0.898251
lfingers 7.12502
lthumb 1.83484 29.0736
rfemur -19.6719 -1.48913 19.7815
rtibia 24.4564
rfoot -12.5308 -0.602246
rtoes 15.1919
lfemur -18.6754 6.80509 -17.3739
ltibia 22.1342
lfoot -9.31301 3.02597
ltoes 1.91177
491
root 0.329449 17.7315 -2.87221 8.95771 0.500169 -1.51008
lowerback 1.60576 -0.243872 -0.226965
upperback 3.32283 -0.361396 1.85107
thorax 2.52327 -0.212147 2.02631
lowerneck -13.1484 -0.202115 -2.16873
upperneck 33.8143 -0.110246 1.21281
head 13.6214 -0.162067 0.847453
rclavicle -8.34896e-015 1.03368e-014
rhumerus -25.4276 -14.2321 -80.3067
rradius 23.5225
rwrist 33.6172
rhand -19.4297 -26.7134
rfingers 7.12502
rthumb 6.89035 -56.5813
lclavicle -8.34896e-015 1.03368e-014
lhumerus -24.9954 -5.67184 91.8471
lradius 18.4502
lwrist 10.807
lhand -24.7321 -0.987214
lfingers 7.12502
lthumb 1.77034 28.9852
rfemur -19.5996 -1.46736 19.754
rtibia 24.3904
rfoot -12.5104 -0.644932
rtoes 15.1393
lfemur -18.5719 6.79582 -17.3948
ltibia 22.0157
lfoot -9.28078 3.02518
ltoes 1.90385
